<svg width="1440" height="408" viewBox="0 0 1440 408" fill="none" xmlns="http://www.w3.org/2000/svg">
<g clip-path="url(#clip0)">
<rect width="1440" height="408" fill="white"/>
<g filter="url(#filter0_d)">
<mask id="mask0" mask-type="alpha" maskUnits="userSpaceOnUse" x="0" y="0" width="1440" height="409">
<rect x="1440" y="408" width="1440" height="408" transform="rotate(-180 1440 408)" fill="#90E1F6"/>
</mask>
<g mask="url(#mask0)">
<rect x="1440" y="408" width="1440" height="408" transform="rotate(-180 1440 408)" fill="white"/>
<rect width="1440" height="1.00012" transform="matrix(-1 -8.67847e-08 -8.80656e-08 1 1440 407)" fill="#161823" fill-opacity="0.12"/>
<path d="M1239.06 166.422C1239.06 177.783 1244.28 188.007 1252.46 194.596C1252.69 194.823 1252.69 194.823 1252.91 195.05C1254.51 195.732 1259.05 198.231 1265.41 201.412C1284.04 211.182 1317.9 229.586 1334.48 243.446L1416.05 256.624C1411.73 195.278 1299.72 140.975 1299.04 138.93L1298.81 139.157C1292.45 133.704 1284.27 130.296 1275.18 130.296C1255.19 130.296 1239.06 146.428 1239.06 166.422Z" fill="#FAC481"/>
<path d="M1097.28 280.254L1097.28 754.439L1174.07 754.439L1174.07 419.987L1188.84 419.987L1188.84 754.439L1265.64 754.439L1265.64 280.254L1097.28 280.254Z" fill="#03AFAA"/>
<path d="M1116.36 334.102L1255.64 334.102C1266.09 334.102 1274.73 325.468 1274.73 315.016L1274.73 150.517C1274.73 140.066 1266.09 131.432 1255.64 131.432L1116.36 131.432C1105.91 131.432 1097.28 140.066 1097.28 150.517L1097.28 315.016C1097.28 325.468 1105.91 334.102 1116.36 334.102Z" fill="#FF9CB0"/>
<path d="M1187.25 211.182C1164.41 211.182 1145.9 191.448 1145.9 167.104C1145.9 142.76 1164.41 123.025 1187.25 123.025C1210.09 123.025 1228.6 142.76 1228.6 167.104C1228.6 191.448 1210.09 211.182 1187.25 211.182Z" fill="#FF9CB0"/>
<path d="M1176.12 112.573L1198.61 112.573L1198.61 139.838L1176.12 139.838L1176.12 112.573Z" fill="#FAC481"/>
<path d="M1155.44 90.9896C1155.44 93.0344 1155.67 95.0793 1156.12 96.897C1156.35 97.8058 1156.58 98.7147 1156.8 99.6235C1157.03 100.532 1157.26 101.441 1157.71 102.35C1162.26 114.165 1173.84 122.572 1187.25 122.572C1200.65 122.572 1212.24 114.165 1216.79 102.35C1218.15 98.7147 1219.06 94.8521 1219.06 90.7624C1219.06 89.8535 1219.06 89.1719 1219.06 88.2631C1219.06 86.8998 1218.83 85.5366 1218.38 84.1733C1218.38 83.4917 1218.15 82.81 1217.92 82.3556C1217.92 81.9012 1217.7 81.4468 1217.47 80.9924C1213.38 68.2687 1201.34 58.9531 1187.25 58.9531C1187.02 58.9531 1186.79 58.9531 1186.57 58.9531C1173.16 59.1803 1161.8 67.8143 1157.49 79.8563C1157.49 80.0835 1157.26 80.538 1157.26 80.7652C1157.26 80.9924 1157.26 80.9924 1157.26 81.2196C1157.26 81.4468 1157.03 81.674 1157.03 81.9012C1157.03 82.1284 1156.8 82.3556 1156.8 82.5828C1156.8 82.81 1156.8 82.81 1156.8 83.0373C1156.58 83.7189 1156.35 84.4005 1156.35 85.0821C1156.35 85.5366 1156.35 85.7638 1156.12 86.2182C1156.12 86.8998 1155.89 87.5814 1155.89 88.2631C1155.44 89.6263 1155.44 90.3079 1155.44 90.9896Z" fill="#FAC481"/>
<path d="M1207.93 92.1251C1207.93 97.3509 1211.56 101.668 1216.56 102.804C1217.92 99.1686 1218.83 95.306 1218.83 91.2163C1218.83 87.8081 1218.38 84.6272 1217.24 81.4463C1212.02 82.1279 1207.93 86.6721 1207.93 92.1251Z" fill="#FAC481"/>
<path d="M1216.79 102.577C1217.47 102.577 1218.15 102.804 1219.06 102.804L1219.29 102.804C1219.74 102.804 1220.2 102.804 1220.65 102.804C1225.88 102.122 1229.74 97.5781 1229.74 92.1251C1229.74 86.6721 1225.65 82.1279 1220.42 81.4463C1219.97 81.4463 1219.29 81.4463 1218.83 81.4463C1218.38 81.4463 1217.92 81.4463 1217.47 81.4463L1217.24 81.4463C1217.47 81.9007 1217.47 82.3551 1217.7 82.8095C1217.92 83.4912 1218.15 83.9456 1218.15 84.6272C1218.61 85.9905 1218.61 87.3537 1218.83 88.717C1218.83 89.6258 1218.83 90.3074 1218.83 91.2163C1218.83 95.0788 1218.15 98.9414 1216.79 102.577Z" fill="#FAC481"/>
<path opacity="0.36" d="M1216.79 102.577C1217.47 102.577 1218.15 102.804 1219.06 102.804L1219.29 102.804C1219.97 100.305 1220.43 97.3509 1220.43 94.3972C1220.43 89.853 1219.52 85.7633 1218.15 82.5823C1217.93 82.1279 1217.7 81.6735 1217.7 81.4463L1217.47 81.4463C1217.7 81.9007 1217.7 82.3551 1217.93 82.8095C1218.15 83.4912 1218.38 83.9456 1218.38 84.6272C1218.84 85.9905 1218.84 87.3537 1219.06 88.717C1219.06 89.6258 1219.06 90.3074 1219.06 91.2163C1218.84 95.0788 1218.15 98.9414 1216.79 102.577Z" fill="black"/>
<path d="M1144.54 91.8979C1144.54 97.3509 1148.4 101.895 1153.63 102.577C1154.08 102.577 1154.53 102.804 1154.99 102.577L1155.22 102.577C1155.9 102.577 1156.81 102.577 1157.49 102.35C1157.26 101.441 1156.81 100.532 1156.58 99.623C1156.35 98.7142 1156.13 97.8053 1155.9 96.8965C1155.44 94.8516 1155.44 93.0339 1155.44 90.9891C1155.44 89.6258 1155.44 88.0353 1155.67 86.6721C1155.67 86.2177 1155.67 85.7633 1155.9 85.536C1155.9 84.8544 1156.13 84.1728 1156.35 83.4912C1156.35 83.264 1156.35 83.0368 1156.58 83.0368C1156.58 82.5823 1156.81 82.1279 1157.03 81.9007C1157.03 81.6735 1157.03 81.6735 1157.03 81.4463L1156.81 81.4463C1156.35 81.4463 1155.9 81.4463 1155.44 81.4463C1154.76 81.4463 1153.85 81.4463 1153.17 81.6735C1148.17 82.5823 1144.54 86.8993 1144.54 91.8979Z" fill="#FAC481"/>
<path opacity="0.36" d="M1153.85 94.3975C1153.85 97.3512 1154.31 100.305 1154.99 102.804L1155.22 102.804C1155.9 102.804 1156.81 102.804 1157.49 102.577C1157.26 101.668 1156.81 100.759 1156.58 99.8505C1156.35 98.9417 1156.13 98.0329 1155.9 97.124C1155.44 95.0791 1155.44 93.2615 1155.44 91.2166C1155.44 89.8533 1155.44 88.2629 1155.67 86.8996C1155.67 86.4452 1155.67 85.9908 1155.9 85.7636C1155.9 85.082 1156.13 84.4003 1156.35 83.7187C1156.35 83.4915 1156.35 83.2643 1156.58 83.2643C1156.58 82.8099 1156.81 82.3555 1157.03 82.1282C1157.03 81.901 1157.03 81.901 1157.03 81.6738L1156.81 81.6738C1156.58 82.1282 1156.35 82.5827 1156.13 83.2643C1154.76 85.9908 1153.85 89.8533 1153.85 94.3975Z" fill="black"/>
<path opacity="0.36" d="M1176.12 121.207L1176.12 123.934C1179.75 125.07 1183.16 126.433 1187.02 126.433C1190.88 126.433 1194.97 125.07 1198.61 123.934L1198.61 121.207C1194.97 122.343 1191.34 122.797 1187.48 122.797C1183.39 123.025 1179.52 122.343 1176.12 121.207Z" fill="black"/>
<path d="M1187.25 150.972C1181.1 150.972 1176.12 145.987 1176.12 139.838C1176.12 133.69 1181.1 128.705 1187.25 128.705C1193.4 128.705 1198.38 133.69 1198.38 139.838C1198.38 145.987 1193.4 150.972 1187.25 150.972Z" fill="#FAC481"/>
<path d="M1154.53 83.4909C1154.53 84.3997 1154.53 85.3085 1154.76 85.9901L1159.98 87.5806C1159.98 87.5806 1166.12 63.0421 1169.75 68.2679C1173.16 73.4937 1197.7 74.6297 1203.84 69.1767C1209.97 63.7237 1212.7 85.5357 1213.38 87.8078C1213.38 87.8078 1216.1 88.035 1219.29 88.4894C1219.51 86.899 1219.51 85.3085 1219.51 83.7181C1219.74 65.5414 1204.97 51 1187.02 51C1169.07 51 1154.53 65.5414 1154.53 83.4909Z" fill="#613E29"/>
<path d="M1312.9 228.45L1354.02 171.648L1291.31 133.25L1259.28 198.232L1312.9 228.45Z" fill="#FF9CB0"/>
<path d="M1198.84 95.7598C1198.84 95.7598 1195.66 102.576 1187.93 102.576C1177.02 102.803 1174.98 96.2142 1174.98 96.2142" stroke="black" stroke-width="1.2839" stroke-miterlimit="10" stroke-linecap="round"/>
<path d="M1314.48 194.595C1316.53 193.232 1321.07 169.375 1321.98 142.565C1322.44 128.932 1277.45 126.433 1268.81 137.112C1262.91 144.382 1251.77 153.698 1253.36 162.104C1256.77 178.918 1299.94 204.82 1314.48 194.595Z" fill="#D8D4CB"/>
<path d="M1212.92 240.946C1212.01 283.889 1239.05 291.387 1269.95 291.387C1299.71 291.387 1328.34 287.979 1329.93 245.718C1329.93 244.355 1329.93 242.991 1329.93 241.628C1329.93 206.183 1309.26 179.827 1289.72 165.059C1279.49 157.334 1269.5 152.562 1262.91 151.426C1234.05 146.2 1213.83 190.96 1212.92 240.946Z" fill="white"/>
<path d="M1212.92 240.946C1212.01 283.889 1239.05 291.387 1269.95 291.387C1299.71 291.387 1328.34 287.979 1329.93 245.718C1327.43 242.764 1324.03 240.492 1319.03 239.81C1303.12 237.538 1310.17 243.673 1304.49 226.178C1298.81 208.683 1308.35 191.869 1298.35 177.328C1295.4 172.784 1292.44 168.694 1289.72 165.059C1279.49 157.334 1269.5 152.562 1262.91 151.426C1234.05 146.2 1213.83 190.96 1212.92 240.946Z" fill="#D8D4CB"/>
<path d="M1272 143.247C1272 143.247 1203.15 187.78 1250.18 287.752" stroke="#999080" stroke-width="3.5102" stroke-miterlimit="10" stroke-linecap="round"/>
<path d="M1285.18 86.8987C1285.18 86.8987 1266.09 70.3125 1258.14 74.1751C1250.19 78.0376 1260.64 105.075 1260.64 105.075L1285.18 86.8987Z" fill="#999080"/>
<path d="M1307.22 86.8987C1307.22 86.8987 1326.3 70.3125 1334.25 74.1751C1342.21 78.0376 1331.75 105.075 1331.75 105.075L1307.22 86.8987Z" fill="#999080"/>
<path d="M1280.41 89.3981C1280.41 89.3981 1266.55 78.0376 1261.09 77.5832C1255.64 77.1288 1264.05 102.349 1264.05 102.349L1280.41 89.3981Z" fill="#E0CBBC"/>
<path d="M1311.76 89.3981C1311.76 89.3981 1325.62 78.0376 1331.07 77.5832C1336.52 77.1288 1328.12 102.349 1328.12 102.349L1311.76 89.3981Z" fill="#E0CBBC"/>
<path d="M1254.73 121.208C1254.73 122.798 1254.96 124.389 1255.18 125.752C1255.41 127.343 1255.87 128.706 1256.55 130.069C1257.46 132.114 1258.82 134.159 1260.64 135.976C1264.5 139.839 1270.41 142.793 1277.68 144.156C1283.13 145.292 1286.77 149.382 1295.4 149.382C1305.4 149.382 1308.58 144.61 1315.17 143.247C1321.98 141.884 1327.21 138.703 1330.62 134.386C1331.98 132.568 1333.12 130.751 1334.03 128.706C1334.71 127.343 1335.16 125.979 1335.39 124.389C1335.84 123.026 1335.84 121.435 1335.84 119.845C1335.84 118.709 1335.84 117.8 1335.62 116.664C1335.16 113.028 1334.25 109.393 1332.66 106.212C1331.98 104.849 1331.3 103.713 1330.62 102.35C1330.16 101.668 1329.71 100.986 1329.25 100.305C1328.35 98.9414 1327.21 97.8054 1326.3 96.6693C1320.62 90.7619 1312.9 86.4449 1303.58 84.8545C1302.22 84.6273 1300.85 84.4001 1299.49 84.4001C1298.13 84.1729 1296.54 84.1729 1295.17 84.1729C1294.72 84.1729 1294.49 84.1729 1294.04 84.1729C1292.67 84.1729 1291.31 84.1729 1289.95 84.4001C1280.4 85.3089 1272.45 89.1714 1266.55 94.6245C1265.41 95.7605 1264.05 96.8965 1263.14 98.2598C1262.46 98.9414 1262 99.623 1261.55 100.305C1260.64 101.441 1259.73 102.804 1259.05 104.167C1256.78 108.03 1255.18 112.347 1254.5 116.891C1254.73 118.481 1254.73 119.845 1254.73 121.208Z" fill="#C6C4BE"/>
<path d="M1286.54 122.343C1290.4 122.343 1293.81 123.933 1295.86 126.433C1297.9 123.933 1301.31 122.343 1305.17 122.343C1311.53 122.343 1316.53 126.66 1316.53 131.886C1316.53 137.111 1311.53 141.428 1305.17 141.428C1301.31 141.428 1297.9 139.838 1295.86 137.339C1293.81 139.838 1290.4 141.428 1286.54 141.428C1280.18 141.428 1275.18 137.111 1275.18 131.886C1275.18 126.66 1280.41 122.343 1286.54 122.343Z" fill="white"/>
<path d="M1296.08 135.749L1296.08 129.842" stroke="black" stroke-width="0.7647" stroke-miterlimit="10" stroke-linecap="round" stroke-linejoin="round"/>
<path d="M1295.85 124.843C1296.99 124.843 1300.17 124.616 1299.94 126.888C1299.94 128.706 1295.85 130.069 1295.85 130.069C1295.85 130.069 1291.76 128.706 1291.76 126.888C1291.99 124.616 1294.72 124.843 1295.85 124.843Z" fill="#EF8585"/>
<path d="M1322.66 126.66C1322.66 126.888 1322.66 127.115 1322.89 127.342C1323.34 128.478 1324.48 128.932 1325.39 128.478L1335.61 124.615C1336.07 123.252 1336.07 121.662 1336.07 120.071L1323.8 124.843C1323.12 125.07 1322.66 125.752 1322.66 126.66Z" fill="#999080"/>
<path d="M1322.66 134.613C1322.66 134.84 1322.66 135.067 1322.89 135.294C1323.34 136.43 1324.48 136.885 1325.39 136.43L1330.84 134.385C1332.21 132.568 1333.34 130.75 1334.25 128.705L1324.03 132.568C1323.12 133.022 1322.66 133.931 1322.66 134.613Z" fill="#999080"/>
<path d="M1254.73 121.207C1254.73 122.797 1254.96 124.388 1255.19 125.751L1266.32 130.068C1267.46 130.523 1268.59 129.841 1268.82 128.932C1268.82 128.705 1269.05 128.478 1269.05 128.251C1269.05 127.342 1268.59 126.66 1267.68 126.433L1254.73 121.207Z" fill="#999080"/>
<path d="M1259.5 104.166L1267.68 105.302C1268.81 105.53 1269.72 104.621 1269.95 103.485L1269.95 103.257C1269.95 102.349 1269.27 101.44 1268.13 101.213L1261.77 100.304C1261.09 101.667 1260.18 102.803 1259.5 104.166Z" fill="#999080"/>
<path d="M1263.59 98.4869L1272.9 99.8502C1274.04 100.077 1274.95 99.1685 1275.18 98.0325L1275.18 97.8053C1275.18 96.8964 1274.49 95.9876 1273.36 95.7604L1267 94.8516C1265.63 95.9876 1264.5 97.1237 1263.59 98.4869Z" fill="#999080"/>
<path d="M1324.48 105.303L1324.48 105.53C1324.71 106.666 1325.62 107.348 1326.75 107.348L1333.11 106.439C1332.43 105.075 1331.75 103.939 1331.07 102.576L1326.3 103.258C1325.16 103.485 1324.48 104.394 1324.48 105.303Z" fill="#999080"/>
<path d="M1319.26 99.8496L1319.26 100.077C1319.48 101.213 1320.39 101.894 1321.53 101.894L1329.48 100.758C1328.57 99.3951 1327.44 98.2591 1326.53 97.123L1321.07 98.0319C1320.16 98.0319 1319.26 98.9407 1319.26 99.8496Z" fill="#999080"/>
<path d="M1256.55 130.068C1257.46 132.113 1258.82 134.158 1260.64 135.976L1266.32 138.248C1267.46 138.702 1268.59 138.021 1268.82 137.112C1268.82 136.885 1269.05 136.657 1269.05 136.43C1269.05 135.521 1268.59 134.84 1267.68 134.613L1256.55 130.068Z" fill="#999080"/>
<path d="M1299.94 84.627L1299.94 96.2146C1299.94 97.3506 1300.85 98.2595 1301.99 98.2595C1303.12 98.2595 1304.03 97.3506 1304.03 96.2146L1304.03 85.0814C1302.67 84.8542 1301.3 84.8542 1299.94 84.627Z" fill="#999080"/>
<path d="M1290.4 84.6266L1290.4 96.2143C1290.4 97.3503 1291.31 98.2591 1292.44 98.2591C1293.58 98.2591 1294.49 97.3503 1294.49 96.2143L1294.49 84.3994C1293.13 84.3994 1291.76 84.6266 1290.4 84.6266Z" fill="#999080"/>
<path d="M1306.76 120.299C1307.67 120.299 1308.35 119.617 1308.35 118.708L1308.35 113.71C1308.35 112.801 1307.67 112.119 1306.76 112.119C1305.85 112.119 1305.17 112.801 1305.17 113.71L1305.17 118.708C1305.17 119.617 1305.85 120.299 1306.76 120.299Z" fill="black"/>
<path d="M1286.77 120.299C1287.67 120.299 1288.36 119.617 1288.36 118.708L1288.36 113.71C1288.36 112.801 1287.67 112.119 1286.77 112.119C1285.86 112.119 1285.17 112.801 1285.17 113.71L1285.17 118.708C1285.17 119.617 1285.86 120.299 1286.77 120.299Z" fill="black"/>
<path d="M1313.12 129.841C1312.49 129.841 1311.98 129.333 1311.98 128.705C1311.98 128.078 1312.49 127.569 1313.12 127.569C1313.75 127.569 1314.25 128.078 1314.25 128.705C1314.25 129.333 1313.75 129.841 1313.12 129.841Z" fill="#E3E3E3"/>
<path d="M1310.62 133.022C1309.99 133.022 1309.49 132.513 1309.49 131.886C1309.49 131.259 1309.99 130.75 1310.62 130.75C1311.25 130.75 1311.76 131.259 1311.76 131.886C1311.76 132.513 1311.25 133.022 1310.62 133.022Z" fill="#E3E3E3"/>
<path d="M1307.44 130.977C1306.81 130.977 1306.3 130.469 1306.3 129.841C1306.3 129.214 1306.81 128.705 1307.44 128.705C1308.07 128.705 1308.57 129.214 1308.57 129.841C1308.57 130.469 1308.07 130.977 1307.44 130.977Z" fill="#E3E3E3"/>
<path d="M1306.08 134.839C1305.45 134.839 1304.94 134.331 1304.94 133.703C1304.94 133.076 1305.45 132.567 1306.08 132.567C1306.71 132.567 1307.21 133.076 1307.21 133.703C1307.21 134.331 1306.71 134.839 1306.08 134.839Z" fill="#E3E3E3"/>
<path d="M1302.67 132.114C1302.05 132.114 1301.54 131.605 1301.54 130.978C1301.54 130.35 1302.05 129.842 1302.67 129.842C1303.3 129.842 1303.81 130.35 1303.81 130.978C1303.81 131.605 1303.3 132.114 1302.67 132.114Z" fill="#E3E3E3"/>
<path d="M1290.4 131.886C1289.77 131.886 1289.26 131.378 1289.26 130.75C1289.26 130.123 1289.77 129.614 1290.4 129.614C1291.03 129.614 1291.54 130.123 1291.54 130.75C1291.54 131.378 1291.03 131.886 1290.4 131.886Z" fill="#E3E3E3"/>
<path d="M1287.68 135.067C1287.05 135.067 1286.54 134.558 1286.54 133.931C1286.54 133.304 1287.05 132.795 1287.68 132.795C1288.3 132.795 1288.81 133.304 1288.81 133.931C1288.81 134.558 1288.3 135.067 1287.68 135.067Z" fill="#E3E3E3"/>
<path d="M1284.49 131.205C1283.87 131.205 1283.36 130.696 1283.36 130.069C1283.36 129.441 1283.87 128.933 1284.49 128.933C1285.12 128.933 1285.63 129.441 1285.63 130.069C1285.63 130.696 1285.12 131.205 1284.49 131.205Z" fill="#E3E3E3"/>
<path d="M1282.45 134.613C1281.82 134.613 1281.31 134.104 1281.31 133.477C1281.31 132.849 1281.82 132.341 1282.45 132.341C1283.07 132.341 1283.58 132.849 1283.58 133.477C1283.58 134.104 1283.07 134.613 1282.45 134.613Z" fill="#E3E3E3"/>
<path d="M1279.27 130.068C1278.64 130.068 1278.13 129.559 1278.13 128.932C1278.13 128.305 1278.64 127.796 1279.27 127.796C1279.9 127.796 1280.41 128.305 1280.41 128.932C1280.41 129.559 1279.9 130.068 1279.27 130.068Z" fill="#E3E3E3"/>
<path d="M1262.23 176.192C1262.23 176.192 1247.46 195.051 1247 216.408" stroke="#999080" stroke-width="3.5102" stroke-miterlimit="10" stroke-linecap="round"/>
<path d="M1281.09 155.517C1281.09 155.517 1275.86 163.242 1273.36 163.923" stroke="#999080" stroke-width="3.5102" stroke-miterlimit="10" stroke-linecap="round"/>
<path d="M1284.04 177.328L1274.95 188.461" stroke="#999080" stroke-width="3.5102" stroke-miterlimit="10" stroke-linecap="round"/>
<path d="M1238.14 167.331C1238.14 167.331 1229.73 183.69 1227.92 189.37" stroke="#999080" stroke-width="3.5102" stroke-miterlimit="10" stroke-linecap="round"/>
<path d="M1220.65 218.453C1220.65 218.453 1221.33 243.673 1227.69 255.034" stroke="#999080" stroke-width="3.5102" stroke-miterlimit="10" stroke-linecap="round"/>
<path d="M1251.32 239.356C1251.32 239.356 1252.91 262.759 1258.59 272.075" stroke="#999080" stroke-width="3.5102" stroke-miterlimit="10" stroke-linecap="round"/>
<path d="M1263.36 215.271L1263.82 233.448" stroke="#999080" stroke-width="3.5102" stroke-miterlimit="10" stroke-linecap="round"/>
<path d="M1283.81 259.578L1276.54 258.442L1245.87 253.671L1245.87 253.898L1245.64 255.034L1242.01 271.62L1239.05 285.253L1237.01 294.568L1234.51 306.156L1232.92 313.654L1232.46 315.244L1232.46 315.472L1261.32 320.016L1265.86 320.697L1275.41 322.061C1290.86 322.061 1304.49 310.928 1306.99 295.25C1309.49 279.118 1299.26 263.668 1283.81 259.578Z" fill="#FAC481"/>
<path d="M1243.6 315.245C1232.46 310.7 1227.24 295.932 1231.55 280.709C1235.42 267.076 1245.87 257.306 1256.77 256.397L1243.6 315.245Z" fill="#FAC481"/>
<path d="M1200.88 283.208C1195.88 282.072 1193.16 275.937 1194.75 269.803C1196.57 263.668 1202.02 259.578 1207.02 260.941L1252.91 271.847L1246.78 294.114L1201.79 283.208C1201.56 283.435 1201.11 283.208 1200.88 283.208Z" fill="#FAC481"/>
<path d="M1196.34 294.795C1191.79 293.659 1189.52 288.206 1191.11 282.526C1192.7 276.846 1197.7 272.983 1202.02 274.119L1251.09 287.07L1245.41 307.746L1196.34 294.795Z" fill="#FAC481"/>
<path d="M1197.7 312.291C1193.16 311.836 1190.2 306.838 1191.34 300.93C1192.47 295.25 1197.02 290.706 1201.79 291.16L1255.18 296.386L1251.32 317.289L1197.7 312.291Z" fill="#FAC481"/>
<path d="M1251.32 277.528L1223.15 267.985C1218.38 266.394 1216.33 260.26 1218.38 254.125C1220.42 247.99 1225.88 244.355 1230.65 245.946C1230.87 245.946 1230.87 245.946 1231.1 246.173L1258.82 255.488L1251.32 277.528Z" fill="#FAC481"/>
<path d="M1237.69 272.529L1221.79 267.757C1221.79 267.757 1218.83 266.167 1218.38 263.44" stroke="black" stroke-width="0.6231" stroke-miterlimit="10" stroke-linecap="round"/>
<path d="M1194.29 276.619C1194.97 279.346 1196.33 282.072 1200.88 283.208C1212.24 285.707 1235.19 291.388 1235.19 291.388" stroke="black" stroke-width="0.6231" stroke-miterlimit="10" stroke-linecap="round"/>
<path d="M1195.2 294.568L1234.05 302.066" stroke="black" stroke-width="0.6231" stroke-miterlimit="10" stroke-linecap="round"/>
<path d="M1269.73 260.94L1262 320.469C1262 320.469 1362.43 338.419 1401.73 296.612C1406.05 292.068 1409.69 286.842 1412.19 280.708C1415.59 272.755 1416.73 264.576 1416.28 256.623L1334.48 243.445C1340.16 248.217 1343.8 252.306 1344.25 255.487C1344.48 256.396 1344.25 257.305 1344.02 257.987C1339.93 274.346 1269.73 260.94 1269.73 260.94Z" fill="#FAC481"/>
<path d="M1252.23 194.823C1252.23 194.823 1252.45 194.823 1252.91 195.051C1252.68 194.823 1252.45 194.823 1252.23 194.823Z" fill="#FAC481"/>
<path d="M1252.91 195.051C1256.55 198.004 1260.87 200.277 1265.41 201.413C1259.05 198.232 1254.5 195.96 1252.91 195.051Z" fill="#FAC481"/>
<path d="M1199.97 200.731L1138.17 232.994C1128.85 237.766 1117.72 231.177 1117.49 220.725L1116.13 152.563L1048.42 167.785C1048.42 167.785 1054.1 233.222 1058.19 261.85C1062.05 289.797 1104.54 310.245 1129.54 297.294L1219.96 249.581L1199.97 200.731Z" fill="#FAC481"/>
<path d="M1243.14 239.811L1242.23 238.221L1238.82 231.632L1233.6 221.634L1229.51 213.682L1223.6 202.094L1216.33 187.78L1215.88 186.644L1215.88 186.417L1181.11 201.413C1172.48 205.275 1167.25 214.364 1169.07 223.679C1169.75 227.315 1170.66 231.177 1172.02 235.267C1172.02 235.494 1172.02 235.494 1172.25 235.721C1177.7 252.308 1196.34 260.033 1212.01 253.216L1243.14 239.811Z" fill="#FAC481"/>
<path d="M1242.23 238.22C1251.09 231.404 1252.68 216.862 1244.96 203.912C1238.14 192.551 1226.33 186.189 1216.33 187.78L1242.23 238.22Z" fill="#FAC481"/>
<path d="M1273.58 198.913C1277.9 196.641 1279.04 190.506 1275.86 185.28C1272.9 180.054 1266.77 177.782 1262.45 180.054L1223.37 200.958L1234.5 219.816L1272.9 199.367C1273.13 199.14 1273.36 199.14 1273.58 198.913Z" fill="#FAC481"/>
<path d="M1280.63 208.456C1284.49 206.411 1285.17 200.958 1282.44 195.959C1279.72 191.188 1274.26 188.916 1270.4 190.961L1229.05 214.363L1239.05 231.631L1280.63 208.456Z" fill="#FAC481"/>
<path d="M1283.36 224.588C1287.45 222.998 1288.81 217.772 1286.54 212.773C1284.27 207.775 1278.81 204.821 1274.72 206.411L1227.46 223.907L1236.1 242.083L1283.36 224.588Z" fill="#FAC481"/>
<path d="M1226.33 205.956L1249.73 190.506C1253.59 188.007 1254.05 181.872 1250.87 176.874C1247.46 171.875 1241.78 169.83 1237.91 172.557C1237.69 172.557 1237.69 172.784 1237.46 172.784L1214.51 188.007L1226.33 205.956Z" fill="#FAC481"/>
<path d="M1252.23 188.688L1238.37 197.322" stroke="black" stroke-width="0.5849" stroke-miterlimit="10" stroke-linecap="round"/>
<path d="M1277.9 191.415C1277.9 193.914 1277.22 196.868 1273.59 198.913C1263.82 203.912 1243.37 215.045 1243.37 215.045" stroke="black" stroke-width="0.5849" stroke-miterlimit="10" stroke-linecap="round"/>
<path d="M1281.54 207.774L1247.91 223.906" stroke="black" stroke-width="0.5849" stroke-miterlimit="10" stroke-linecap="round"/>
<path d="M1058.2 97.1246L1057.97 96.8965C1057.97 97.1246 1057.97 97.3527 1057.74 97.5808C1057.97 97.3527 1057.97 97.1246 1058.2 97.1246Z" fill="#191414"/>
<path d="M1090.01 208.001C1066.79 208.001 1047.97 189.182 1047.97 165.967C1047.97 142.753 1066.79 123.934 1090.01 123.934C1113.22 123.934 1132.04 142.753 1132.04 165.967C1132.04 189.182 1113.22 208.001 1090.01 208.001Z" fill="#FF9CB0"/>
<path d="M1047 163.379L1115.13 157.407L1119.57 208.109L1051.44 214.08L1047 163.379Z" fill="#FF9CB0"/>
<path d="M392.567 432.814C384.827 441.614 374.624 453.231 369.699 458.863L359.496 457.455L377.439 425.774L386.586 425.774L362.662 405.709L375.68 394.093L386.586 398.317C393.271 402.189 408.751 413.805 392.567 432.814Z" fill="#B57769"/>
<path d="M410.861 199.43L344.72 256.456L312.001 213.863L312.353 213.863C308.131 207.174 305.668 199.078 305.668 190.278C305.668 165.989 325.37 146.276 349.645 146.276C366.884 146.276 381.661 156.133 389.049 170.565L410.861 199.43Z" fill="#72CFFD"/>
<path d="M109 487.228L111.463 487.228L186.752 487.58L188.511 487.58L189.566 310.166L190.622 222.163L111.111 217.587L110.055 303.126L109 487.228Z" fill="#B57769"/>
<path d="M110.135 253.765L194 258L194 188.477L194 184.595L194 183.89L194 183.184C192.516 160.951 172.106 144.364 149.099 146.129C125.721 147.54 108.28 166.95 110.135 188.83L110.135 189.536L110.135 253.765Z" fill="#72CFFD"/>
<path d="M246.209 70.9453L200.121 70.9453L200.121 166.693L246.209 166.693L246.209 70.9453Z" fill="#613E29"/>
<path d="M305.666 70.9453L259.578 70.9453L259.578 166.693L305.666 166.693L305.666 70.9453Z" fill="#613E29"/>
<path d="M253.246 135.012C282.78 135.012 306.722 111.056 306.722 81.5058C306.722 51.9554 282.78 28 253.246 28C223.712 28 199.77 51.9554 199.77 81.5058C199.77 111.056 223.712 135.012 253.246 135.012Z" fill="#613E29"/>
<path d="M315 166L185 166L185 344L315 344L315 166Z" fill="#72CFFD"/>
<path d="M268.726 130.787L268.726 168.804C268.726 171.972 267.67 174.789 266.263 177.253C263.448 181.477 258.875 184.293 253.246 184.293C247.968 184.293 243.043 181.477 240.228 177.253C238.821 174.789 237.766 171.972 237.766 168.804L237.766 130.787L268.726 130.787Z" fill="#B57769"/>
<path d="M305.664 90.6579C305.664 93.826 305.313 97.3461 304.609 100.162C304.257 101.922 303.905 103.33 303.554 104.738C303.202 106.146 302.498 107.554 302.146 108.962C294.758 128.323 276.112 142.052 254.299 142.052C232.486 142.052 213.84 128.323 206.1 109.314C203.989 103.682 202.582 96.9941 202.582 90.6579C202.582 89.2498 202.582 87.8418 202.582 86.7857C202.582 84.6737 202.934 82.2096 203.637 80.0975C203.637 79.0415 203.989 77.9854 204.341 76.9294C204.341 76.2254 204.693 75.5214 205.045 74.8173C211.729 54.0486 231.079 38.9121 253.947 38.9121C254.299 38.9121 254.651 38.9121 255.003 38.9121C276.815 39.2641 295.11 53.3446 302.146 73.0573C302.146 73.4093 302.498 74.1133 302.498 74.4653C302.498 74.8173 302.498 74.8173 302.498 75.1693C302.498 75.5213 302.85 75.8734 302.85 76.2254C302.85 76.5774 303.202 76.9294 303.202 77.2814C303.202 77.6334 303.202 77.6334 303.202 77.9854C303.554 79.0415 303.905 80.0975 303.905 81.5056C303.905 82.2096 303.905 82.9136 304.257 83.2656C304.257 84.3216 304.609 85.3777 304.609 86.7857C305.664 88.1938 305.664 89.2498 305.664 90.6579Z" fill="#B57769"/>
<path d="M219.821 92.066C219.821 100.514 213.84 107.554 205.749 109.315C203.638 103.682 202.23 96.9941 202.23 90.6579C202.23 85.0257 202.934 79.7456 204.693 74.8174C213.489 75.8734 219.821 83.2657 219.821 92.066Z" fill="#B57769"/>
<path d="M205.749 109.314C204.694 109.314 203.287 109.666 202.231 109.666L201.879 109.666C201.176 109.666 200.472 109.666 199.768 109.666C191.325 108.258 184.992 101.218 184.992 92.4175C184.992 83.6172 191.677 76.225 200.12 75.1689C200.824 75.1689 201.879 75.1689 202.583 75.1689C203.287 75.1689 203.99 75.1689 204.694 75.1689L205.046 75.1689C204.694 75.873 204.694 76.577 204.342 77.281C203.99 78.3371 203.638 79.3931 203.638 80.4491C202.935 82.5612 202.935 84.6733 202.583 87.1374C202.583 88.5454 202.583 89.9534 202.583 91.0095C202.583 96.9937 203.638 103.33 205.749 109.314Z" fill="#B57769"/>
<path opacity="0.36" d="M205.75 109.315C204.695 109.315 203.287 109.667 202.232 109.667L201.88 109.667C200.825 105.442 200.121 100.866 200.121 95.9381C200.121 88.5458 201.528 81.8576 203.639 76.5774C203.991 75.8734 204.343 75.1694 204.695 74.8174L205.047 74.8174C204.695 75.5214 204.695 76.2254 204.343 76.9295C203.991 77.9855 203.639 79.0415 203.639 80.0976C202.936 82.2096 202.936 84.3217 202.584 86.7858C202.584 88.1938 202.584 89.6019 202.584 90.6579C202.584 96.9941 203.639 103.33 205.75 109.315Z" fill="black"/>
<path d="M322.906 92.0654C322.906 100.866 316.573 108.258 308.129 109.314C307.426 109.314 306.722 109.666 306.018 109.314L305.667 109.314C304.611 109.314 303.204 109.314 302.148 108.962C302.5 107.554 303.204 106.146 303.556 104.738C303.908 103.33 304.259 101.57 304.611 100.162C305.315 96.9936 305.667 93.8255 305.667 90.3054C305.667 87.8413 305.667 85.7292 305.315 83.2651C305.315 82.5611 305.315 81.8571 304.963 81.5051C304.963 80.449 304.611 79.041 304.259 77.985C304.259 77.633 304.259 77.2809 303.908 77.2809C303.908 76.5769 303.556 75.8729 303.204 75.1689C303.204 74.8169 303.204 74.8169 303.204 74.4648L303.556 74.4648C304.259 74.4648 304.963 74.4648 305.667 74.4648C307.074 74.4648 308.129 74.4648 309.537 74.8169C316.925 76.5769 322.906 83.6172 322.906 92.0654Z" fill="#B57769"/>
<path opacity="0.36" d="M307.778 95.9371C307.778 100.865 307.074 105.441 306.018 109.666L305.667 109.666C304.611 109.666 303.204 109.666 302.148 109.314C302.5 107.906 303.204 106.497 303.556 105.089C303.908 103.681 304.259 101.921 304.611 100.513C305.315 97.3452 305.667 94.1771 305.667 90.6569C305.667 88.1929 305.667 86.0808 305.315 83.6167C305.315 82.9127 305.315 82.2087 304.963 81.8566C304.963 80.8006 304.611 79.3926 304.259 78.3365C304.259 77.9845 304.259 77.6325 303.908 77.6325C303.908 76.9285 303.556 76.2245 303.204 75.5204C303.204 75.1684 303.204 75.1684 303.204 74.8164L303.556 74.8164C303.908 75.5204 304.259 76.5765 304.611 77.2805C306.37 82.2087 307.778 88.8969 307.778 95.9371Z" fill="black"/>
<path opacity="0.36" d="M268.726 140.292L268.726 144.164C263.8 145.572 258.875 147.684 253.597 147.684C248.32 147.684 242.339 145.924 237.766 144.164L237.766 140.292C242.691 141.7 247.968 142.756 253.246 142.756C258.523 142.756 263.8 141.7 268.726 140.292Z" fill="black"/>
<path d="M303.556 77.2814C299.686 78.6895 295.465 79.3935 291.243 79.3935C273.3 79.3935 258.172 66.7211 254.654 49.4725C251.136 66.369 236.008 79.3935 218.065 79.3935C216.658 79.3935 215.602 79.3935 214.195 79.3935C210.677 79.0415 207.159 77.9854 203.992 76.9294C203.992 76.2254 204.344 75.5214 204.696 74.8173C211.732 54.0486 231.082 38.9121 253.95 38.9121C254.302 38.9121 254.654 38.9121 255.006 38.9121C276.818 39.2641 295.113 53.3446 302.149 73.0573C302.149 73.4093 302.501 74.1133 302.501 74.4653C302.501 74.8173 302.501 74.8173 302.501 75.1693C302.501 75.5213 302.853 75.8734 302.853 76.2254C303.556 76.5774 303.556 76.9294 303.556 77.2814Z" fill="#613E29"/>
<path d="M284.204 344.106L183.936 344.106L147.699 564.466L247.615 564.466L284.204 344.106Z" fill="#EEEEEE"/>
<path d="M215.602 344.106L315.518 344.106L351.755 564.466L251.487 564.466L215.602 344.106Z" fill="#EEEEEE"/>
<path d="M459.763 263.144L390.455 316.298L354.57 269.128L344.719 256.456L410.86 199.43L421.415 213.158L457.3 259.976L459.763 263.144Z" fill="#B57769"/>
<path d="M463.199 318.792L406.977 262.539L321.4 348.163L377.622 404.416L463.199 318.792Z" fill="#B57769"/>
<path d="M394.326 426.478L389.049 427.886C391.863 422.254 391.863 415.917 389.401 410.285L321.5 348.331C321.5 348.331 311.297 352.907 309.89 370.86C308.131 388.812 313.76 413.453 341.905 418.029C348.942 419.085 352.108 419.789 354.219 421.198L335.925 439.502L346.127 455.343L350.701 450.767L351.756 455.695L360.2 449.711C368.292 460.271 357.385 463.439 365.477 453.231L383.772 441.966L394.326 426.478Z" fill="#B57769"/>
<path d="M316.22 341.643L184.641 341.643L184.641 357.131L316.22 357.131L316.22 341.643Z" fill="#191414"/>
<path d="M234.953 105.795C234.953 105.795 239.879 116.355 251.84 116.355C268.728 116.707 271.894 106.499 271.894 106.499" stroke="black" stroke-width="1.2845" stroke-miterlimit="10"/>
<path d="M367.938 401.133C367.938 401.133 400.657 407.117 386.233 423.662C377.086 433.87 350.699 453.935 350.699 453.935" stroke="black" stroke-width="0.5708" stroke-miterlimit="10" stroke-linecap="round"/>
<path d="M427.044 337.771C451.331 337.771 471.021 318.07 471.021 293.769C471.021 269.468 451.331 249.768 427.044 249.768C402.756 249.768 383.066 269.468 383.066 293.769C383.066 318.07 402.756 337.771 427.044 337.771Z" fill="#B57769"/>
<path d="M271.442 235.639C267.484 233.079 264.642 228.972 263.747 224.194C263.551 223.145 263.441 222.085 263.441 221L250.82 221L250.795 271.304C250.587 276.935 245.918 281.458 240.208 281.458C238.431 281.458 236.765 281.019 235.294 280.251C231.913 278.483 229.609 274.961 229.609 270.914C229.609 265.1 234.363 260.358 240.22 260.358C241.311 260.358 242.365 260.541 243.345 260.846L243.345 251.009L243.345 248.035C242.316 247.901 241.274 247.804 240.22 247.804C227.415 247.804 217 258.164 217 270.902C217 278.715 220.921 285.638 226.913 289.819C230.687 292.452 235.27 294 240.22 294C253.025 294 263.441 283.639 263.441 270.902L263.441 245.39C268.391 248.925 274.457 251.009 281 251.009L281 241.258L281 238.467C277.471 238.455 274.187 237.419 271.442 235.639Z" fill="#A2E0FF"/>
</g>
</g>
</g>
<defs>
<filter id="filter0_d" x="-12" y="-10" width="1464" height="432" filterUnits="userSpaceOnUse" color-interpolation-filters="sRGB">
<feFlood flood-opacity="0" result="BackgroundImageFix"/>
<feColorMatrix in="SourceAlpha" type="matrix" values="0 0 0 0 0 0 0 0 0 0 0 0 0 0 0 0 0 0 127 0"/>
<feOffset dy="2"/>
<feGaussianBlur stdDeviation="6"/>
<feColorMatrix type="matrix" values="0 0 0 0 0 0 0 0 0 0 0 0 0 0 0 0 0 0 0.12 0"/>
<feBlend mode="normal" in2="BackgroundImageFix" result="effect1_dropShadow"/>
<feBlend mode="normal" in="SourceGraphic" in2="effect1_dropShadow" result="shape"/>
</filter>
<clipPath id="clip0">
<rect width="1440" height="408" fill="white"/>
</clipPath>
</defs>
</svg>
