<svg width="56" height="56" viewBox="0 0 56 56" fill="none" xmlns="http://www.w3.org/2000/svg">
<rect width="56" height="56" fill="white"/>
<path fill-rule="evenodd" clip-rule="evenodd" d="M38.8509 14.4315C34.61 14.7062 27.7539 14.4315 27.7539 14.4315C27.7539 14.4315 30.0052 9.58263 32.7916 7.3451C35.0723 5.5145 38.4707 5.14411 40.5562 7.3451C42.6417 9.54609 41.9697 14.2295 38.8509 14.4315Z" stroke="#FE2C55" stroke-width="2.33333"/>
<path fill-rule="evenodd" clip-rule="evenodd" d="M17.0397 14.4315C21.2806 14.7062 28.1367 14.4315 28.1367 14.4315C28.1367 14.4315 25.8855 9.58263 23.099 7.3451C20.8183 5.5145 17.4199 5.14411 15.3344 7.3451C13.2489 9.54609 13.9209 14.2295 17.0397 14.4315Z" stroke="#FE2C55" stroke-width="2.33333"/>
<rect x="7" y="16.7988" width="42" height="8.4" stroke="black" stroke-width="2.33333" stroke-linecap="round" stroke-linejoin="round"/>
<rect x="11.1992" y="25.1992" width="33.6" height="25.2" stroke="black" stroke-width="2.33333" stroke-linecap="round" stroke-linejoin="round"/>
<path d="M23.8008 15.3945H32.2008V41.9945L28.0008 39.1945L23.8008 41.9945V15.3945Z" fill="#FE2C55"/>
</svg>
