<svg width="56" height="56" viewBox="0 0 56 56" fill="none" xmlns="http://www.w3.org/2000/svg">
<rect width="56" height="56" fill="white"/>
<path d="M11.6166 16.1836H44.3847C47.5786 16.1836 50.1673 18.7723 50.1673 21.9662V41.2416C50.1673 44.4355 47.5786 47.0242 44.3847 47.0242H11.6166C8.42267 47.0242 5.83398 44.4355 5.83398 41.2416V21.9662C5.83398 18.7723 8.42267 16.1836 11.6166 16.1836Z" stroke="black" stroke-width="2.33333" stroke-linecap="round" stroke-linejoin="round"/>
<path d="M31.1412 22.1328H28.1541V34.287C28.1541 35.7352 27.0052 36.9247 25.5755 36.9247C24.1458 36.9247 22.9969 35.7352 22.9969 34.287C22.9969 32.8647 24.1202 31.701 25.4989 31.6493V28.5978C22.4607 28.6495 20.0098 31.1579 20.0098 34.287C20.0098 37.4419 22.5118 39.9762 25.601 39.9762C28.6903 39.9762 31.1923 37.4161 31.1923 34.287V28.0547C32.3157 28.8823 33.6943 29.3736 35.1496 29.3995V26.348C32.9029 26.2704 31.1412 24.4085 31.1412 22.1328Z" fill="#FE2C55"/>
<path d="M21.2539 16.1808V12.3258C21.2597 10.1997 22.9829 8.47649 25.109 8.4707H30.8916C33.0177 8.47649 34.7409 10.1997 34.7467 12.3258V16.1808" stroke="black" stroke-width="2.33333" stroke-linecap="round" stroke-linejoin="round"/>
</svg>
