<svg width="56" height="56" viewBox="0 0 56 56" fill="none" xmlns="http://www.w3.org/2000/svg">
<path d="M56 0H0V56H56V0Z" fill="white"/>
<path d="M28 33.7383V40.4223" stroke="#FE2C55" stroke-width="2.33333" stroke-linecap="round" stroke-linejoin="round"/>
<path d="M28 35C28.9665 35 29.75 34.2165 29.75 33.25C29.75 32.2835 28.9665 31.5 28 31.5C27.0335 31.5 26.25 32.2835 26.25 33.25C26.25 34.2165 27.0335 35 28 35Z" fill="#FE2C55" stroke="#FE2C55" stroke-width="2.33333" stroke-linecap="round" stroke-linejoin="round"/>
<path d="M41.2464 25.7168L42.5832 25.7168C44.1874 25.7168 45.2568 26.7862 45.2568 28.3904L45.2568 46.2793C45.2568 47.8835 44.1874 48.9529 42.5832 48.9529L13.1735 48.9529C11.5693 48.9529 10.4999 47.8835 10.4999 46.2793L10.4999 34.248" stroke="black" stroke-width="2.33333" stroke-linecap="round" stroke-linejoin="round"/>
<path d="M14.5104 48.9529H13.1736C11.5694 48.9529 10.5 47.8835 10.5 46.2793V28.3904C10.5 26.7862 11.5694 25.7168 13.1736 25.7168H42.5833C44.1875 25.7168 45.2569 26.7862 45.2569 28.3904V40.4217" stroke="black" stroke-width="2.33333" stroke-linecap="round" stroke-linejoin="round"/>
<path d="M39.9102 25.7153V19.0312C39.9102 12.3472 34.5629 7 27.8789 7C21.1949 7 15.8477 12.3472 15.8477 19.0312V25.7153" stroke="black" stroke-width="2.33333" stroke-linecap="round" stroke-linejoin="round"/>
</svg>
