<svg width="20" height="20" viewBox="0 0 20 20" fill="none" xmlns="http://www.w3.org/2000/svg">
<path fill-rule="evenodd" clip-rule="evenodd" d="M3.33333 2.5C2.8731 2.5 2.5 2.8731 2.5 3.33333V8.75C2.5 9.21024 2.8731 9.58333 3.33333 9.58333H8.75C9.21024 9.58333 9.58333 9.21024 9.58333 8.75V3.33333C9.58333 2.8731 9.21024 2.5 8.75 2.5H3.33333ZM4.16667 7.91667V4.16667H7.91667V7.91667H4.16667ZM11.6667 2.5C11.2064 2.5 10.8333 2.8731 10.8333 3.33333V8.75C10.8333 9.21024 11.2064 9.58333 11.6667 9.58333H17.0833C17.5436 9.58333 17.9167 9.21024 17.9167 8.75V3.33333C17.9167 2.8731 17.5436 2.5 17.0833 2.5H11.6667ZM12.5 7.91667V4.16667H16.25V7.91667H12.5ZM3.33333 10.8333C2.8731 10.8333 2.5 11.2064 2.5 11.6667V17.0833C2.5 17.5436 2.8731 17.9167 3.33333 17.9167H8.75C9.21024 17.9167 9.58333 17.5436 9.58333 17.0833V11.6667C9.58333 11.2064 9.21024 10.8333 8.75 10.8333H3.33333ZM4.16667 16.25V12.5H7.91667V16.25H4.16667ZM10.8333 17.5C10.8333 17.7301 11.0199 17.9167 11.25 17.9167H12.0833C12.3135 17.9167 12.5 17.7301 12.5 17.5V11.25C12.5 11.0199 12.3135 10.8333 12.0833 10.8333H11.25C11.0199 10.8333 10.8333 11.0199 10.8333 11.25V17.5ZM13.5417 17.5C13.5417 17.7301 13.7282 17.9167 13.9583 17.9167H14.7917C15.0218 17.9167 15.2083 17.7301 15.2083 17.5V11.25C15.2083 11.0199 15.0218 10.8333 14.7917 10.8333H13.9583C13.7282 10.8333 13.5417 11.0199 13.5417 11.25V17.5ZM16.6667 17.9167C16.4365 17.9167 16.25 17.7301 16.25 17.5V11.25C16.25 11.0199 16.4365 10.8333 16.6667 10.8333H17.5C17.7301 10.8333 17.9167 11.0199 17.9167 11.25V17.5C17.9167 17.7301 17.7301 17.9167 17.5 17.9167H16.6667Z" fill="white"/>
</svg>
