<svg width="56" height="56" viewBox="0 0 56 56" fill="none" xmlns="http://www.w3.org/2000/svg">
<rect width="56" height="56" fill="white"/>
<path d="M28.5833 45.5007C29.2639 45.5007 32.6667 42.3114 32.6667 40.0562C32.6667 39.0104 32.2735 38.0564 31.6269 37.334H25.5397C24.8932 38.0564 24.5 39.0104 24.5 40.0562C24.5 42.3114 27.9028 45.5007 28.5833 45.5007Z" fill="#FE2C55"/>
<path d="M10.5 51.4047C10.5 48.0757 13.1987 45.377 16.5278 45.377H17.1975" stroke="black" stroke-width="2.33333" stroke-linecap="round"/>
<path d="M17.1973 45.374C17.1973 43.1546 18.9964 41.3555 21.2158 41.3555" stroke="black" stroke-width="2.33333" stroke-linecap="round"/>
<path d="M46.666 51.4047C46.666 48.0757 43.9673 45.377 40.6382 45.377H39.9685" stroke="black" stroke-width="2.33333" stroke-linecap="round"/>
<path d="M39.9688 45.374C39.9688 43.1546 38.1696 41.3555 35.9502 41.3555" stroke="black" stroke-width="2.33333" stroke-linecap="round"/>
<path d="M33.2587 33.8793H23.2539C23.2539 33.8793 18.6865 25.832 20.6439 17.1322C22.6014 8.43235 28.4738 5.16992 28.4738 5.16992C28.4738 5.16992 33.9111 7.77987 36.0861 17.1322C38.261 26.4845 33.2587 33.8793 33.2587 33.8793Z" stroke="black" stroke-width="2.33333"/>
<path d="M33.2578 33.8821L38.4342 37.1311L40.6527 38.4501V36.2523V28.9261C40.6527 28.9261 40.6527 26.7283 39.1737 25.9956C38.0552 25.4416 36.9368 24.8876 36.458 24.6504" stroke="black" stroke-width="2.33333" stroke-linejoin="round"/>
<path d="M23.252 33.7551L18.0756 37.0042L15.8571 38.3232V36.1253V28.7992C15.8571 28.7992 15.8571 26.6013 17.3361 25.8687C18.4545 25.3147 19.7282 24.7606 20.207 24.5234" stroke="black" stroke-width="2.33333" stroke-linejoin="round"/>
<circle cx="28.5833" cy="17.2435" r="2.67901" stroke="black" stroke-width="2.33333"/>
</svg>
