<svg width="56" height="56" viewBox="0 0 56 56" fill="none" xmlns="http://www.w3.org/2000/svg">
<rect width="56" height="56" fill="white"/>
<path d="M41.4121 41.7051V47.8296" stroke="black" stroke-width="2.33333" stroke-linecap="round" stroke-linejoin="round"/>
<path d="M51.6209 43.7466C51.6147 45.9984 49.7896 47.8235 47.5378 47.8296H8.74905C6.49725 47.8235 4.67214 45.9984 4.66602 43.7466C4.66602 42.6197 5.58061 41.7051 6.70753 41.7051H49.5793C50.7063 41.7051 51.6209 42.6197 51.6209 43.7466Z" stroke="black" stroke-width="2.33333" stroke-linecap="round" stroke-linejoin="round"/>
<path d="M15.895 33.5415L13.8535 31.5" stroke="#FE2C55" stroke-width="2.33333" stroke-linecap="round" stroke-linejoin="round"/>
<path d="M30.1855 33.5415L32.2271 31.5" stroke="#FE2C55" stroke-width="2.33333" stroke-linecap="round" stroke-linejoin="round"/>
<path d="M14.8728 37.6211H11.8105" stroke="#FE2C55" stroke-width="2.33333" stroke-linecap="round" stroke-linejoin="round"/>
<path d="M34.2674 37.6211H31.2051" stroke="#FE2C55" stroke-width="2.33333" stroke-linecap="round" stroke-linejoin="round"/>
<path d="M36.7772 7C33.1106 9.02518 30.1566 12.1303 28.3151 15.8928L21.8721 29.0484C21.2964 30.2263 21.3291 31.2185 22.2151 31.9065C23.0991 32.5986 24.377 32.4454 25.0732 31.5655L32.9882 19.6574C33.8721 18.3202 35.6707 17.9527 37.0079 18.8367C38.0674 19.5369 38.5492 20.8456 38.194 22.0664L37.3978 24.8204C37.2059 26.0984 38.0879 27.2886 39.3658 27.4805C40.3723 27.6315 41.3604 27.115 41.8095 26.2025L43.798 20.4638C45.0351 16.883 47.9647 14.1473 51.6211 13.1552" stroke="black" stroke-width="2.33333" stroke-linecap="round" stroke-linejoin="round"/>
</svg>
